# xmcd
#
# Track frame offsets:
#	150
#	13050
#	23213
#	34597
#	46455
#	56484
#	66103
#	80407
#	90010
#	102758
#	113221
#	124774
#	133601
#	146798
#	159615
#	171262
#	185338
#	195634
#	206710
#	215969
#	228674
#	242108
#	254099
#	265202
#	275929
#	287054
#	297983
#	308210
#	317713
#	329926
#
# Disc length: 4540 seconds
#
# Revision: 0
# Processed by: cddbd v1.5.2PL0 Copyright (c) Steve Scherf et al.
# Submitted via: audiograbber 1.83.01
#
DISCID=d911ba1e
DTITLE=Various Artist - Honky Tonkin' [CD3 - Out Of Control)
DYEAR=2011
DGENRE=Country
TTITLE0=Ray Price - Invitation To The Blues
TTITLE1=Lattie Moore - Juke Joint Johnny
TTITLE2=Jimmie Skinner - Another Saturday Night
TTITLE3=Charlie Walker - Who Will Buy The Wine
TTITLE4=George Jones - Just Little Boy Blue
TTITLE5=Buck Owens - Second Fiddle
TTITLE6=Bud Deckelman - Daydreamin'
TTITLE7=Benny Barnes - Poor Man's Riches
TTITLE8=Wynn Stewart - The Keeper Of The Keys
TTITLE9=Loretta Lynn - I'm A Honky-Tonk Girl
TTITLE10=Hardrock Gunter - Honky Tonk Baby
TTITLE11=Billy Montana - You're More At Home In A Honky Tonk
TTITLE12=Carl Perkins - Let The Jukebox Keep On Playing
TTITLE13=Charlie Feathers - Honky Tonk Kind
TTITLE14=George McCormick - Fifty-Fifty Honky Tonkin'
TTITLE15=Lefty Frizzell - Always Late (With Your Kisses)
TTITLE16=Jerry Reed - If The Good Lord's Willing (And The Creek Don't Rise]
TTITLE17=Jimmy Newman - Honky Tonk Tears
TTITLE18=Doug Poindexter - My Kind Of Carrying On
TTITLE19=Harold Jenkins (Conway Twitty) - Just In Time
TTITLE20=Jerry Lee Lewis - You Win Again
TTITLE21=Wanda Jackson - Silver Threads And Golden Needles
TTITLE22=Charlie Walker - Pick Me Up On Your Way Down
TTITLE23=Skeets McDonald - Make Room For The Blues
TTITLE24=Buck Owens - Above And Beyond (The Call of Love)
TTITLE25=Tommy Blake - Honky Tonk Mind (The Woman I Need)
TTITLE26=Johnny Horton - Honky-Tonk Man
TTITLE27=Dolly Parton - Girl Left Alone
TTITLE28=George Jones - Out Of Control
TTITLE29=Donny Young (Johnny Paycheck) - Shakin' The Blues
EXTD=
EXTT0=
EXTT1=
EXTT2=
EXTT3=
EXTT4=
EXTT5=
EXTT6=
EXTT7=
EXTT8=
EXTT9=
EXTT10=
EXTT11=
EXTT12=
EXTT13=
EXTT14=
EXTT15=
EXTT16=
EXTT17=
EXTT18=
EXTT19=
EXTT20=
EXTT21=
EXTT22=
EXTT23=
EXTT24=
EXTT25=
EXTT26=
EXTT27=
EXTT28=
EXTT29=
PLAYORDER=
